HIERARCHY
ROOT joint_Root
{
	OFFSET 0.0 0.0 0.0
	CHANNELS 6 Xposition Yposition Zposition Zrotation Xrotation Yrotation 
	JOINT Hips
	{
		OFFSET 4.5925 91.4895 -427.239
		CHANNELS 6 Xposition Yposition Zposition Zrotation Xrotation Yrotation 
		JOINT Spine
		{
			OFFSET 15.7357 0.0 0.0
			CHANNELS 6 Xposition Yposition Zposition Zrotation Xrotation Yrotation 
			JOINT Chest
			{
				OFFSET 8.98455 -0.406207 0.0
				CHANNELS 6 Xposition Yposition Zposition Zrotation Xrotation Yrotation 
				JOINT Neck
				{
					OFFSET 16.3773 0.0 0.0
					CHANNELS 6 Xposition Yposition Zposition Zrotation Xrotation Yrotation 
					JOINT Head
					{
						OFFSET 6.45672 0.0 0.0
						CHANNELS 6 Xposition Yposition Zposition Zrotation Xrotation Yrotation 
						End Site
						{
							OFFSET 0.0 0.0 0.0
						}
					}
				}
				JOINT Shoulder_L
				{
					OFFSET 12.9942 -0.242716 4.98039
					CHANNELS 6 Xposition Yposition Zposition Zrotation Xrotation Yrotation 
					JOINT UpperArm_L
					{
						OFFSET 5.34809 0.0 0.0
						CHANNELS 6 Xposition Yposition Zposition Zrotation Xrotation Yrotation 
						JOINT LowerArm_L
						{
							OFFSET 24.3286 1.87007e-05 0.0
							CHANNELS 6 Xposition Yposition Zposition Zrotation Xrotation Yrotation 
							JOINT Hand_L
							{
								OFFSET 22.2916 0.0 0.0
								CHANNELS 6 Xposition Yposition Zposition Zrotation Xrotation Yrotation 
								End Site
								{
									OFFSET 0.0 0.0 0.0
								}
							}
						}
					}
				}
				JOINT Shoulder_R
				{
					OFFSET 12.9945 -0.242716 -4.98039
					CHANNELS 6 Xposition Yposition Zposition Zrotation Xrotation Yrotation 
					JOINT UpperArm_R
					{
						OFFSET -5.34813 0.0 0.0
						CHANNELS 6 Xposition Yposition Zposition Zrotation Xrotation Yrotation 
						JOINT LowerArm_R
						{
							OFFSET -24.3289 0.000322201 0.0
							CHANNELS 6 Xposition Yposition Zposition Zrotation Xrotation Yrotation 
							JOINT Hand_R
							{
								OFFSET -22.2915 -0.000108084 0.0
								CHANNELS 6 Xposition Yposition Zposition Zrotation Xrotation Yrotation 
								End Site
								{
									OFFSET 0.0 0.0 0.0
								}
							}
						}
					}
				}
			}
		}
		JOINT UpperLeg_L
		{
			OFFSET -2.19248 -6.46944 0.0
			CHANNELS 6 Xposition Yposition Zposition Zrotation Xrotation Yrotation 
			JOINT LowerLeg_L
			{
				OFFSET 39.0811 0.0 -1.23785e-05
				CHANNELS 6 Xposition Yposition Zposition Zrotation Xrotation Yrotation 
				JOINT Foot_L
				{
					OFFSET 40.9854 0.0 -1.26872e-05
					CHANNELS 6 Xposition Yposition Zposition Zrotation Xrotation Yrotation 
					JOINT Toes_L
					{
						OFFSET 11.7543 0.0 0.0
						CHANNELS 6 Xposition Yposition Zposition Zrotation Xrotation Yrotation 
						End Site
						{
							OFFSET 0.0 0.0 0.0
						}
					}
				}
			}
		}
		JOINT UpperLeg_R
		{
			OFFSET -2.19251 6.46944 0.0
			CHANNELS 6 Xposition Yposition Zposition Zrotation Xrotation Yrotation 
			JOINT LowerLeg_R
			{
				OFFSET -39.0811 -0.00228153 -0.0401928
				CHANNELS 6 Xposition Yposition Zposition Zrotation Xrotation Yrotation 
				JOINT Foot_R
				{
					OFFSET -40.9854 0.0 0.0
					CHANNELS 6 Xposition Yposition Zposition Zrotation Xrotation Yrotation 
					JOINT Toes_R
					{
						OFFSET -11.7543 0.0 0.0
						CHANNELS 6 Xposition Yposition Zposition Zrotation Xrotation Yrotation 
						End Site
						{
							OFFSET 0.0 0.0 0.0
						}
					}
				}
			}
		}
	}
}
MOTION
Frames:	9
Frame Time:	0.0333333
0.000000 0.000000 0.000000 0.000000 0.000000 -0.000000 1.833950 90.310400 2.426780 88.932600 -6.884000 11.540600 15.735700 0.000005 -0.000001 95.138500 82.697400 -99.138300 8.984550 -0.406207 -0.000000 6.841230 1.335640 -8.071100 16.377300 -0.000001 -0.000001 15.359000 1.524190 -2.929650 6.456720 -0.000001 -0.000000 5.292240 3.760320 -17.305800 12.994200 -0.242716 4.980390 -92.327000 6.915810 -71.351300 5.348090 -0.000007 -0.000001 -56.871800 31.390700 -11.554300 24.328600 0.000019 0.000005 7.857300 26.139100 -17.393000 22.291600 -0.000001 0.000005 11.301700 5.208260 2.511360 12.994500 -0.242716 -4.980390 90.067900 -0.257827 -75.244200 -5.348130 -0.000001 -0.000004 -37.740700 -48.767600 -48.082000 -24.328900 0.000322 -0.000009 -3.308550 -3.215590 -45.853000 -22.291500 -0.000108 -0.000004 27.065400 5.453910 -4.779950 -2.192480 -6.469440 -0.000000 -175.129000 -14.565400 3.845080 39.081100 -0.000007 -0.000012 -0.192246 0.311535 31.678800 40.985400 -0.000006 -0.000013 1.356760 2.379830 -73.752700 11.754300 -0.000000 0.000003 -0.000241 -0.002162 -16.658700 -2.192510 6.469440 -0.000001 172.120000 17.997000 -176.663000 -39.081100 -0.002282 -0.040193 -0.165013 0.277810 31.209900 -40.985400 0.000008 0.000006 2.221050 12.882700 -72.095600 -11.754300 -0.000006 -0.000006 -0.002725 -0.037452 -18.096100
0.000000 0.000000 0.000000 0.000000 0.000000 -0.000000 1.939980 90.299200 2.446010 88.932600 -6.978340 11.629600 15.735700 0.000005 -0.000001 94.613800 82.676100 -98.614600 8.984550 -0.406207 -0.000000 6.890230 1.204470 -8.065770 16.377300 -0.000001 -0.000001 15.396100 1.602160 -3.177040 6.456720 -0.000001 -0.000000 5.313860 3.843400 -17.270000 12.994200 -0.242716 4.980390 -92.378000 7.025270 -71.245700 5.348090 -0.000007 -0.000001 -56.577800 31.261500 -11.775600 24.328600 0.000019 0.000005 7.843770 25.937000 -17.482600 22.291600 -0.000001 0.000005 11.336800 5.208350 2.509060 12.994500 -0.242716 -4.980390 89.962800 0.143202 -75.426000 -5.348130 -0.000001 -0.000004 -37.910700 -47.861600 -44.949400 -24.328900 0.000322 -0.000009 -3.250880 -3.308890 -44.530100 -22.291500 -0.000108 -0.000004 26.866900 5.445800 -4.490360 -2.192480 -6.469440 -0.000000 -175.155000 -14.685600 3.952730 39.081100 -0.000007 -0.000012 -0.186422 0.301810 31.703100 40.985400 -0.000006 -0.000013 1.438260 2.384910 -73.802500 11.754300 -0.000000 0.000003 -0.000256 -0.002277 -16.662800 -2.192510 6.469440 -0.000001 172.042000 17.893300 -176.609000 -39.081100 -0.002282 -0.040193 -0.163880 0.275457 31.254400 -40.985400 0.000008 0.000006 2.213120 12.884900 -72.105500 -11.754300 -0.000006 -0.000006 -0.002670 -0.036810 -18.070000
0.000000 0.000000 0.000000 0.000000 0.000000 -0.000000 2.040710 90.286500 2.461510 88.936200 -7.146580 11.738600 15.735700 0.000005 -0.000001 94.206200 82.648300 -98.210100 8.984550 -0.406207 -0.000000 6.949900 1.102860 -8.066520 16.377300 -0.000001 -0.000001 15.436400 1.649630 -3.373620 6.456720 -0.000001 -0.000000 5.381500 3.883790 -17.222700 12.994200 -0.242716 4.980390 -92.404400 7.081980 -71.192800 5.348090 -0.000007 -0.000001 -56.374300 31.238400 -12.041900 24.328600 0.000019 0.000005 7.870060 25.742700 -17.653900 22.291600 -0.000001 0.000005 11.228700 5.209470 2.480790 12.994500 -0.242716 -4.980390 89.861100 0.539546 -75.562400 -5.348130 -0.000001 -0.000004 -38.729700 -47.069100 -42.494800 -24.328900 0.000322 -0.000009 -3.453150 -3.696470 -43.096000 -22.291500 -0.000108 -0.000004 26.812400 5.442420 -4.370510 -2.192480 -6.469440 -0.000000 -175.130000 -14.944500 4.085900 39.081100 -0.000007 -0.000012 -0.186016 0.300769 31.735800 40.985400 -0.000006 -0.000013 1.524160 2.434070 -73.852200 11.754300 -0.000000 0.000003 -0.000252 -0.002251 -16.661900 -2.192510 6.469440 -0.000001 171.933000 17.791200 -176.537000 -39.081100 -0.002282 -0.040193 -0.165530 0.277756 31.292700 -40.985400 0.000008 0.000006 2.161800 13.030200 -72.096800 -11.754300 -0.000006 -0.000006 -0.002792 -0.038224 -18.127500
0.000000 0.000000 0.000000 0.000000 0.000000 -0.000000 2.137050 90.274700 2.443420 88.937000 -7.307280 11.870100 15.735700 0.000005 -0.000001 93.483800 82.618900 -97.468700 8.984550 -0.406207 -0.000000 7.014060 0.919661 -8.017810 16.377300 -0.000001 -0.000001 15.480400 1.737750 -3.642760 6.456720 -0.000001 -0.000000 5.468240 3.884710 -17.189000 12.994200 -0.242716 4.980390 -92.433800 7.169210 -71.192400 5.348090 -0.000007 -0.000001 -56.329300 31.221400 -12.184100 24.328600 0.000019 0.000005 7.953460 25.622700 -17.904400 22.291600 -0.000001 0.000005 11.302200 5.212270 2.409750 12.994500 -0.242716 -4.980390 89.761700 0.939365 -75.766700 -5.348130 -0.000001 -0.000004 -39.843200 -46.488400 -40.681600 -24.328900 0.000322 -0.000009 -3.625700 -4.116100 -41.429600 -22.291500 -0.000108 -0.000004 26.494500 5.436150 -4.151430 -2.192480 -6.469440 -0.000000 -175.186000 -14.941500 4.195690 39.081100 -0.000007 -0.000012 -0.185983 0.300192 31.780500 40.985400 -0.000006 -0.000013 1.539620 2.246190 -73.885000 11.754300 -0.000000 0.000003 -0.000226 -0.002053 -16.654700 -2.192510 6.469440 -0.000001 171.839000 17.655000 -176.474000 -39.081100 -0.002282 -0.040193 -0.172667 0.289108 31.327000 -40.985400 0.000008 0.000006 1.986370 13.137100 -72.026200 -11.754300 -0.000006 -0.000006 -0.002748 -0.037718 -18.106900
0.000000 0.000000 0.000000 0.000000 0.000000 -0.000000 2.234420 90.263400 2.422440 88.904500 -7.653010 11.988200 15.735700 0.000005 -0.000001 93.068800 82.575300 -97.016600 8.984550 -0.406207 -0.000000 7.103080 0.814602 -7.937810 16.377300 -0.000001 -0.000001 15.466700 1.759940 -3.840900 6.456720 -0.000001 -0.000000 5.537250 3.904520 -17.163300 12.994200 -0.242716 4.980390 -92.446300 7.192560 -71.159700 5.348090 -0.000007 -0.000001 -56.324300 31.440500 -12.460600 24.328600 0.000019 0.000005 8.003090 25.385200 -18.157200 22.291600 -0.000001 0.000005 11.357300 5.214960 2.341260 12.994500 -0.242716 -4.980390 89.681200 1.270610 -75.915400 -5.348130 -0.000001 -0.000004 -41.032500 -45.954600 -39.380100 -24.328900 0.000322 -0.000009 -3.809700 -4.620390 -39.571100 -22.291500 -0.000108 -0.000004 26.153400 5.423420 -3.714040 -2.192480 -6.469440 -0.000000 -175.125000 -15.226500 4.339300 39.081100 -0.000007 -0.000012 -0.185700 0.299221 31.824500 40.985400 -0.000006 -0.000013 1.583650 2.164400 -73.936600 11.754300 -0.000000 0.000003 -0.000236 -0.002126 -16.657400 -2.192510 6.469440 -0.000001 171.831000 17.413400 -176.464000 -39.081100 -0.002282 -0.040193 -0.171845 0.287132 31.382500 -40.985400 0.000008 0.000006 1.990280 13.263200 -71.996200 -11.754300 -0.000006 -0.000006 -0.002742 -0.037649 -18.104200
0.000000 0.000000 0.000000 0.000000 0.000000 -0.000000 2.343580 90.255900 2.380860 88.877800 -8.088920 12.068200 15.735700 0.000005 -0.000001 92.631500 82.543700 -96.529600 8.984550 -0.406207 -0.000000 7.167070 0.702181 -7.831970 16.377300 -0.000001 -0.000001 15.449000 1.776710 -3.962020 6.456720 -0.000001 -0.000000 5.598910 3.928540 -17.175200 12.994200 -0.242716 4.980390 -92.455400 7.218880 -71.158000 5.348090 -0.000007 -0.000001 -56.429700 31.650800 -12.639700 24.328600 0.000019 0.000005 8.089450 25.087800 -18.531800 22.291600 -0.000001 0.000005 11.314700 5.219010 2.237970 12.994500 -0.242716 -4.980390 89.612300 1.557950 -76.024300 -5.348130 -0.000001 -0.000004 -42.110800 -45.370000 -38.591300 -24.328900 0.000322 -0.000009 -3.860230 -5.018670 -37.636300 -22.291500 -0.000108 -0.000004 25.586600 5.408700 -3.222150 -2.192480 -6.469440 -0.000000 -175.151000 -15.388300 4.409190 39.081100 -0.000007 -0.000012 -0.181484 0.291970 31.864800 40.985400 -0.000006 -0.000013 1.583560 1.895100 -73.962200 11.754300 -0.000000 0.000003 -0.000237 -0.002138 -16.657800 -2.192510 6.469440 -0.000001 171.858000 17.071000 -176.541000 -39.081100 -0.002282 -0.040193 -0.172552 0.287702 31.434500 -40.985400 0.000008 0.000006 1.938540 13.378000 -71.919500 -11.754300 -0.000006 -0.000006 -0.002814 -0.038479 -18.137900
0.000000 0.000000 0.000000 0.000000 0.000000 -0.000000 2.464110 90.245800 2.328500 88.864600 -8.633390 12.172000 15.735700 0.000005 -0.000001 92.126500 82.506500 -95.952800 8.984550 -0.406207 -0.000000 7.241540 0.571206 -7.680900 16.377300 -0.000001 -0.000001 15.468900 1.804560 -4.088440 6.456720 -0.000001 -0.000000 5.636120 3.930830 -17.176000 12.994200 -0.242716 4.980390 -92.463600 7.238620 -71.147000 5.348090 -0.000007 -0.000001 -56.621600 31.992200 -12.837300 24.328600 0.000019 0.000005 8.135680 24.865800 -18.776500 22.291600 -0.000001 0.000005 11.404800 5.226060 2.057050 12.994500 -0.242716 -4.980390 89.550400 1.819170 -76.114600 -5.348130 -0.000001 -0.000004 -43.192100 -44.857000 -38.635900 -24.328900 0.000322 -0.000009 -3.881690 -5.420100 -35.683400 -22.291500 -0.000108 -0.000004 24.959000 5.393460 -2.725180 -2.192480 -6.469440 -0.000000 -175.143000 -15.717100 4.522700 39.081100 -0.000007 -0.000012 -0.179144 0.287784 31.902400 40.985400 -0.000006 -0.000013 1.604890 1.671240 -73.994400 11.754300 -0.000000 0.000003 -0.000236 -0.002126 -16.657400 -2.192510 6.469440 -0.000001 171.892000 16.640400 -176.646000 -39.081100 -0.002282 -0.040193 -0.170270 0.282945 31.526500 -40.985400 0.000008 0.000006 1.940260 13.493300 -71.859200 -11.754300 -0.000006 -0.000006 -0.002679 -0.036916 -18.074300
0.000000 0.000000 0.000000 0.000000 0.000000 -0.000000 2.591990 90.231200 2.268420 88.860000 -9.251820 12.273800 15.735700 0.000005 -0.000001 91.631700 82.470000 -95.368200 8.984550 -0.406207 -0.000000 7.313370 0.441646 -7.493300 16.377300 -0.000001 -0.000001 15.520500 1.784790 -4.099130 6.456720 -0.000001 -0.000000 5.689920 3.912240 -17.186400 12.994200 -0.242716 4.980390 -92.442600 7.211410 -71.231500 5.348090 -0.000007 -0.000001 -56.974000 32.292000 -12.897700 24.328600 0.000019 0.000005 8.224490 24.670400 -19.100100 22.291600 -0.000001 0.000005 11.367200 5.234730 1.832870 12.994500 -0.242716 -4.980390 89.518200 1.952220 -76.134700 -5.348130 -0.000001 -0.000004 -44.394900 -44.485900 -39.530700 -24.328900 0.000322 -0.000009 -3.924800 -5.844830 -33.961600 -22.291500 -0.000108 -0.000004 24.339900 5.375530 -2.158170 -2.192480 -6.469440 -0.000000 -175.087000 -16.217800 4.649690 39.081100 -0.000007 -0.000012 -0.178474 0.286167 31.950900 40.985400 -0.000006 -0.000013 1.644020 1.520030 -74.039800 11.754300 -0.000000 0.000003 -0.000246 -0.002200 -16.660100 -2.192510 6.469440 -0.000001 171.915000 16.128900 -176.780000 -39.081100 -0.002282 -0.040193 -0.177404 0.293469 31.622700 -40.985400 0.000008 0.000006 1.833550 13.685000 -71.761600 -11.754300 -0.000006 -0.000006 -0.002632 -0.036369 -18.052100
0.000000 0.000000 0.000000 0.000000 0.000000 -0.000000 2.726890 90.224800 2.177470 88.830100 -9.988180 12.349100 15.735700 0.000005 -0.000001 91.134500 82.439100 -94.747400 8.984550 -0.406207 -0.000000 7.372880 0.310346 -7.238310 16.377300 -0.000001 -0.000001 15.549200 1.724170 -4.051120 6.456720 -0.000001 -0.000000 5.848800 3.844050 -17.149800 12.994200 -0.242716 4.980390 -92.422100 7.183970 -71.312400 5.348090 -0.000007 -0.000001 -57.340500 32.697500 -12.944700 24.328600 0.000019 0.000005 8.308500 24.397300 -19.470600 22.291600 -0.000001 0.000005 11.227800 5.235640 1.809180 12.994500 -0.242716 -4.980390 89.516700 1.967120 -76.192700 -5.348130 -0.000001 -0.000004 -45.508000 -44.301500 -41.091500 -24.328900 0.000322 -0.000009 -3.760560 -5.840780 -32.850400 -22.291500 -0.000108 -0.000004 23.937700 5.356300 -1.566920 -2.192480 -6.469440 -0.000000 -175.051000 -16.677600 4.734610 39.081100 -0.000007 -0.000012 -0.177910 0.284867 31.986600 40.985400 -0.000006 -0.000013 1.655630 1.236940 -74.059000 11.754300 -0.000000 0.000003 -0.000248 -0.002221 -16.660800 -2.192510 6.469440 -0.000001 172.027000 15.546700 -176.984000 -39.081100 -0.002282 -0.040193 -0.173644 0.286310 31.716600 -40.985400 0.000008 0.000006 1.841880 13.797600 -71.656600 -11.754300 -0.000006 -0.000006 -0.002810 -0.038430 -18.135900
